HIERARCHY
ROOT Hips
{
	OFFSET 0.00000 0.00000 0.00000
	CHANNELS 6 Xposition Yposition Zposition Zrotation Yrotation Xrotation 
	JOINT LHipJoint
	{
		OFFSET 0 0 0
		CHANNELS 3 Zrotation Yrotation Xrotation
		JOINT LeftUpLeg
		{
			OFFSET 1.54859 -1.61379 0.86856
			CHANNELS 3 Zrotation Yrotation Xrotation
			JOINT LeftLeg
			{
				OFFSET 2.25087 -6.18423 0.00000
				CHANNELS 3 Zrotation Yrotation Xrotation
				JOINT LeftFoot
				{
					OFFSET 2.40328 -6.60297 0.00000
					CHANNELS 3 Zrotation Yrotation Xrotation
					JOINT LeftToeBase
					{
						OFFSET 0.17435 -0.47901 2.02453
						CHANNELS 3 Zrotation Yrotation Xrotation
						End Site
						{
							OFFSET 0.00000 -0.00000 1.04844
						}
					}
				}
			}
		}
	}
	JOINT RHipJoint
	{
		OFFSET 0 0 0
		CHANNELS 3 Zrotation Yrotation Xrotation
		JOINT RightUpLeg
		{
			OFFSET -1.54669 -1.61379 0.86856
			CHANNELS 3 Zrotation Yrotation Xrotation
			JOINT RightLeg
			{
				OFFSET -2.28132 -6.26789 0.00000
				CHANNELS 3 Zrotation Yrotation Xrotation
				JOINT RightFoot
				{
					OFFSET -2.51636 -6.91365 0.00000
					CHANNELS 3 Zrotation Yrotation Xrotation
					JOINT RightToeBase
					{
						OFFSET -0.15124 -0.41552 2.21090
						CHANNELS 3 Zrotation Yrotation Xrotation
						End Site
						{
							OFFSET -0.00000 -0.00000 1.13399
						}
					}
				}
			}
		}
	}
	JOINT LowerBack
	{
		OFFSET 0 0 0
		CHANNELS 3 Zrotation Yrotation Xrotation
		JOINT Spine
		{
			OFFSET -0.04287 2.26161 -0.25690
			CHANNELS 3 Zrotation Yrotation Xrotation
			JOINT Spine1
			{
				OFFSET 0.02248 2.28395 -0.10140
				CHANNELS 3 Zrotation Yrotation Xrotation
				JOINT Neck
				{
					OFFSET 0 0 0
					CHANNELS 3 Zrotation Yrotation Xrotation
					JOINT Neck1
					{
						OFFSET -0.11644 1.38496 0.11345
						CHANNELS 3 Zrotation Yrotation Xrotation
						JOINT Head
						{
							OFFSET 0.29383 1.36600 0.06642
							CHANNELS 3 Zrotation Yrotation Xrotation
							End Site
							{
								OFFSET 0.11075 1.41395 -0.00294
							}
						}
					}
				}
				JOINT LeftShoulder
				{
					OFFSET 0 0 0
					CHANNELS 3 Zrotation Yrotation Xrotation
					JOINT LeftArm
					{
						OFFSET 3.51628 0.59542 -0.30346
						CHANNELS 3 Zrotation Yrotation Xrotation
						JOINT LeftForeArm
						{
							OFFSET 4.76405 -0.00000 0.00000
							CHANNELS 3 Zrotation Yrotation Xrotation
							JOINT LeftHand
							{
								OFFSET 3.13759 -0.00000 -0.00000
								CHANNELS 3 Zrotation Yrotation Xrotation
								JOINT LeftFingerBase
								{
									OFFSET 0 0 0
									CHANNELS 3 Zrotation Yrotation Xrotation
									JOINT LeftHandIndex1
									{
										OFFSET 0.73226 -0.00000 -0.00000
										CHANNELS 3 Zrotation Yrotation Xrotation
										End Site
										{
											OFFSET 0.59037 -0.00000 -0.00000
										}
									}
								}
								JOINT LThumb
								{
									OFFSET 0 0 0
									CHANNELS 3 Zrotation Yrotation Xrotation
									End Site
									{
										OFFSET 0.59938 -0.00000 0.59938
									}
								}
							}
						}
					}
				}
				JOINT RightShoulder
				{
					OFFSET 0 0 0
					CHANNELS 3 Zrotation Yrotation Xrotation
					JOINT RightArm
					{
						OFFSET -3.30990 0.84213 -0.36430
						CHANNELS 3 Zrotation Yrotation Xrotation
						JOINT RightForeArm
						{
							OFFSET -5.10161 -0.00000 -0.00000
							CHANNELS 3 Zrotation Yrotation Xrotation
							JOINT RightHand
							{
								OFFSET -3.23267 -0.00000 -0.00000
								CHANNELS 3 Zrotation Yrotation Xrotation
								JOINT RightFingerBase
								{
									OFFSET 0 0 0
									CHANNELS 3 Zrotation Yrotation Xrotation
									JOINT RightHandIndex1
									{
										OFFSET -0.70200 -0.00000 -0.00000
										CHANNELS 3 Zrotation Yrotation Xrotation
										End Site
										{
											OFFSET -0.56597 -0.00000 -0.00000
										}
									}
								}
								JOINT RThumb
								{
									OFFSET 0 0 0
									CHANNELS 3 Zrotation Yrotation Xrotation
									End Site
									{
										OFFSET -0.57461 -0.00000 0.57461
									}
								}
							}
						}
					}
				}
			}
		}
	}
}
MOTION
Frames: 16
Frame Time: 0.0377358
0.00 0.00 0.00 0 0 0 0 0 0 -21 0 0 0 0 0 0 0 0 0 0 0 0 0 0 21 0 0 0 0 0 0 0 0 0 0 0 0 0 0 0 0 0 0 0 0 0 0 -16 0 0 21 0 0 11 0 0 0 -8 0 0 0 0 0 0 0 0 0 0 0 0 0 0 0 0 0 0 0 0 8 0 0 0 0 0 0 0 0 0 0 0 0 0 0 0 0 0
0.00 0.00 0.00 3.8152 69.8962 7.9488 0.0000 0.0000 0.0000 -24.3502 -4.9619 -12.9831 5.8365 14.2680 44.3218 1.9150 -8.2330 -24.8235 0.1754 -2.6981 -7.4392 0.0000 0.0000 0.0000 18.3986 -0.1040 -15.7845 -7.0864 -15.4042 49.2002 -4.0464 -5.0565 -39.9886 -0.0471 1.4009 -3.8525 0.9357 -1.5604 -2.6050 0.1309 -2.0814 6.1498 -0.5758 -0.9353 7.8634 -26.1659 -2.1750 -19.9068 26.8952 0.3867 10.3875 14.2884 1.3900 6.3908 -0.0000 0.0000 0.0000 -96.1381 -4.1855 56.9122 114.7185 -57.5605 -81.2315 -0.0000 0.0000 -34.8998 12.1450 24.8621 5.1700 -7.1250 0.0000 -0.0000 -18.3389 54.3897 -4.3418 -0.0000 0.0000 0.0000 92.8034 -5.5187 33.1773 -76.2125 59.2694 -48.0890 0.0000 -0.0000 -16.4871 -37.6495 -3.9885 3.0716 7.1250 -0.0000 -0.0000 -9.1231 -34.8953 -2.2878
0.00 0.00 0.00 4.7112 68.2508 9.8967 0.0000 0.0000 0.0000 -25.5510 -4.0208 -13.9174 6.2940 14.7073 46.1504 1.9004 -9.3091 -24.7304 0.0054 -0.4757 -1.3072 0.0000 0.0000 0.0000 16.5771 -0.7851 -16.0530 -7.2160 -15.5111 49.6867 -4.2082 -3.5626 -40.1642 -0.1989 2.8717 -7.9217 1.3499 -1.2202 -1.9365 -0.1770 -1.6193 6.0741 -1.0699 -0.6776 7.3776 -27.5651 -2.5209 -19.9303 28.3321 0.3621 8.9153 15.1377 1.4569 5.9858 0.0000 -0.0000 0.0000 -96.0247 -3.4398 59.1656 113.3315 -57.8398 -80.0591 -0.0000 0.0000 -40.5735 13.4063 24.9319 5.7375 -7.1250 0.0000 -0.0000 -17.1241 54.6947 -4.1696 0.0000 -0.0000 0.0000 94.1353 -5.9807 29.7304 -82.1650 59.7668 -53.2200 0.0000 -0.0000 -59.0371 -32.8442 23.4444 -14.4043 7.1250 -0.0000 -0.0000 -2.2386 -2.6965 -2.1325
0.00 0.00 0.00 -0.8179 64.4666 6.7459 0.0000 0.0000 0.0000 -24.3063 -1.5656 -16.4480 6.8149 15.1740 48.1708 1.2862 -10.1416 -20.4456 0.1297 2.3210 6.3937 0.0000 0.0000 0.0000 17.2030 -0.4489 -14.8932 -6.0863 -14.5115 45.3272 -3.7991 -1.9350 -37.6446 -0.1348 2.3666 -6.5199 4.0761 -0.2650 -0.0851 0.2886 -0.4228 6.2612 -1.9993 0.0485 6.5379 -27.6611 -2.5550 -21.1316 28.3079 0.9431 7.3398 15.1359 1.8464 5.5561 0.0000 0.0000 0.0000 -94.9658 -6.6532 55.5618 93.3561 -59.9574 -62.9061 -0.0000 0.0000 -41.4946 13.7995 23.5750 5.6104 -7.1250 0.0000 -0.0000 -16.0373 53.4572 -3.4042 0.0000 0.0000 0.0000 94.7354 -4.4526 26.5345 -83.4095 59.8352 -54.2956 0.0000 -0.0000 -79.7201 -22.6926 44.4279 -16.3155 7.1250 -0.0000 -0.0000 7.5064 16.4115 9.3884
0.00 0.00 0.00 -1.4328 62.0842 8.4590 0.0000 0.0000 0.0000 -24.6012 -2.3572 -20.1191 8.0890 16.1843 52.8825 0.8991 -8.3526 -17.0404 0.0085 0.5959 1.6376 0.0000 0.0000 0.0000 15.3484 -2.4861 -14.6239 -5.1062 -13.5024 41.2795 -3.4221 0.4397 -34.9961 -0.1853 2.7728 -7.6468 5.2569 0.0298 3.5387 0.7452 0.1740 4.8747 -2.1738 0.2809 3.0640 -26.4631 -1.6561 -20.3342 27.0566 1.8267 7.0949 14.3179 2.1884 5.0669 0.0000 0.0000 0.0000 -94.5480 -1.9549 47.2092 69.6806 -58.3810 -42.4986 -0.0000 0.0000 -28.2726 15.2742 21.5145 5.7191 -7.1250 0.0000 -0.0000 -13.6620 51.6962 -2.2885 0.0000 0.0000 0.0000 93.4155 -3.9463 25.2731 -93.6134 59.9506 -63.1288 0.0000 -0.0000 -75.6383 -30.6425 44.5815 -22.5784 7.1250 -0.0000 -0.0000 3.8062 18.8073 4.8386
0.00 0.00 0.00 -3.3336 56.2329 6.7992 0.0000 0.0000 0.0000 -23.3051 1.5633 -26.1062 11.1989 18.0311 63.4259 0.7811 -6.1625 -15.7584 1.5818 -7.9346 -22.5155 0.0000 0.0000 0.0000 13.6849 -2.5689 -13.6744 -5.1196 -13.5172 41.3368 -3.8950 3.3166 -36.6853 -0.7550 5.5497 -15.4832 4.7901 0.7577 8.3611 2.3790 1.4495 5.4494 -0.3327 0.8613 1.0204 -25.1576 0.7185 -17.8149 24.2241 4.8008 4.4718 12.7349 3.4149 3.0751 0.0000 -0.0000 0.0000 -96.7587 4.3291 39.8839 49.8576 -52.9379 -26.0605 -0.0000 0.0000 -28.3679 6.4107 24.2232 2.6394 -7.1250 0.0000 -0.0000 -23.5351 52.7612 -4.7042 0.0000 -0.0000 0.0000 91.0774 1.4515 24.9234 -111.1233 58.2450 -78.1855 0.0000 -0.0000 -48.4665 -41.0750 24.8262 -20.1001 7.1250 -0.0000 -0.0000 -6.8414 1.3577 -7.0516
0.00 0.00 0.00 -6.3899 53.0084 5.5502 0.0000 0.0000 0.0000 -16.9360 6.2798 -39.1571 15.6143 19.5325 77.0804 1.1513 -2.1433 -19.6836 0.1487 2.4852 6.8486 0.0000 0.0000 0.0000 11.3409 -4.9362 -12.4095 -4.9025 -13.2732 40.3999 -4.2264 8.2821 -37.5524 -0.9195 6.1094 -17.1023 5.6366 0.2976 14.8185 4.0724 1.4505 7.7875 0.8819 0.9175 -0.0272 -21.2263 2.9946 -17.5665 18.5576 7.8686 -0.2319 9.8048 4.7928 1.2222 -0.0000 0.0000 0.0000 -97.9670 11.7329 33.6148 26.1776 -37.3835 -8.9953 -0.0000 0.0000 -30.3723 4.1956 27.1149 1.9150 -7.1250 0.0000 -0.0000 -27.4843 54.9565 -7.1184 -0.0000 0.0000 0.0000 91.5771 19.9600 36.3710 -129.4179 53.2276 -93.3603 0.0000 -0.0000 -10.5280 -36.9905 11.7315 -8.7080 7.1250 -0.0000 -0.0000 -6.7371 -15.4742 -4.7287
0.00 0.00 0.00 -9.5582 53.5669 5.7570 0.0000 0.0000 0.0000 -7.6726 8.4387 -53.5889 18.3334 19.9333 85.1219 1.1082 -2.7749 -19.1666 0.1053 2.0924 5.7612 0.0000 0.0000 0.0000 10.2759 -5.9380 -6.3891 -3.3661 -11.2654 33.1801 -4.1218 5.7067 -37.3635 -2.1764 9.2242 -26.4992 4.5938 1.2859 17.2014 4.6801 2.8040 8.9075 1.8672 1.5799 -0.1345 -19.9293 1.8031 -16.4119 18.3826 6.3777 -4.9500 9.3979 4.1024 0.0495 0.0000 -0.0000 0.0000 -97.8630 18.2366 25.5046 11.9826 -19.7785 -2.0964 -0.0000 0.0000 -18.2971 15.3275 28.0560 7.3456 -7.1250 0.0000 -0.0000 -16.9947 58.0888 -5.5473 0.0000 -0.0000 0.0000 90.8344 32.7099 53.2643 -118.5970 56.6723 -84.4891 0.0000 0.0000 21.5924 -26.6687 21.0249 -10.2150 7.1250 -0.0000 -0.0000 1.2355 -6.7108 1.0829
0.00 0.00 0.00 -9.4900 55.5446 6.9509 0.0000 0.0000 0.0000 -5.8769 7.3014 -57.9718 18.5276 19.9479 85.6915 1.0105 -3.4574 -18.1558 0.0012 0.2249 0.6178 0.0000 0.0000 0.0000 9.9015 -6.6178 -1.6105 -2.2853 -9.4367 27.1710 -3.8477 2.6926 -36.5857 -2.4699 9.7830 -28.2768 3.2766 2.1785 17.0673 4.3867 3.7625 8.5113 2.1221 2.0098 -0.5608 -16.7691 -1.0125 -12.0461 16.7288 1.9730 -11.5600 8.1155 1.6852 -1.6432 -0.0000 0.0000 0.0000 -95.6012 20.6140 26.7626 10.6496 -17.7491 -1.6675 -0.0000 0.0000 -13.7782 19.1094 26.8180 8.8840 -7.1250 0.0000 -0.0000 -12.2790 57.7034 -3.8573 -0.0000 0.0000 0.0000 88.6043 33.0423 49.5359 -101.3659 59.5062 -69.8268 0.0000 0.0000 26.7588 -31.7907 29.0517 -16.7504 7.1250 -0.0000 -0.0000 -0.5859 3.1846 -0.6175
0.00 0.00 0.00 -10.3254 58.1006 6.6981 0.0000 0.0000 0.0000 -4.0282 5.8560 -61.2408 18.4130 19.9395 85.3553 0.8817 -6.3971 -16.7478 0.0294 1.1076 3.0450 0.0000 0.0000 0.0000 10.1464 -8.0379 4.6924 -1.2645 -7.1279 20.0949 -3.1309 -2.0619 -34.2643 -3.4151 11.3385 -33.4303 2.4155 2.9656 17.6132 4.1863 4.6937 8.3635 2.1937 2.4506 -1.0691 -11.2636 -4.0130 -5.9947 14.4333 -2.4132 -21.9570 6.6218 -0.8963 -5.1166 -0.0000 -0.0000 0.0000 -92.8026 20.0311 24.4366 10.4443 -17.4315 -1.6055 -0.0000 0.0000 -12.3400 18.8724 26.9505 8.8067 -7.1250 0.0000 -0.0000 -12.6031 57.7835 -3.9856 -0.0000 -0.0000 0.0000 84.9275 33.6709 43.5626 -75.1124 59.1457 -47.1439 0.0000 0.0000 30.5550 -40.6191 32.6107 -24.8078 7.1250 -0.0000 -0.0000 -4.6356 10.0306 -5.3883
0.00 0.00 0.00 -9.4916 62.0535 8.5485 0.0000 0.0000 0.0000 -4.3086 3.0612 -62.2044 18.2815 19.9290 84.9699 0.1156 -14.4790 -11.4463 0.0000 -0.0178 -0.0490 0.0000 0.0000 0.0000 9.1937 -8.3045 13.4209 -0.8369 -5.8357 16.3086 -1.8455 -7.4204 -29.2280 -2.9133 10.5534 -30.7880 1.0299 5.3295 18.7788 0.6921 7.4578 8.7288 -1.2677 3.8558 -1.0243 -13.4967 -9.2064 -4.8142 22.9623 -8.2253 -24.1290 9.9273 -4.1281 -4.4129 -0.0000 0.0000 0.0000 -83.6405 7.1506 23.4406 9.7082 -16.2819 -1.3920 -0.0000 0.0000 -11.4721 27.4065 27.0678 13.2755 -7.1250 0.0000 -0.0000 -3.2226 59.8767 -1.1708 -0.0000 0.0000 0.0000 80.1903 43.2847 18.4757 -21.0618 31.9004 -6.0826 0.0000 0.0000 40.7336 -35.8609 32.7413 -21.3528 7.1250 -0.0000 -0.0000 -2.0404 8.4271 -2.3188
0.00 0.00 0.00 -8.7610 64.7028 11.0062 0.0000 0.0000 0.0000 -5.1424 0.9750 -60.7298 18.4791 19.9445 85.5494 0.1523 -17.4845 -13.6909 0.1995 -2.8762 -7.9342 0.0000 0.0000 0.0000 11.4124 -4.2701 12.1189 -1.6451 -8.0840 22.9696 -0.9098 -14.2239 -28.1663 -2.0684 9.0071 -25.8177 0.2734 5.5986 18.7703 -0.5965 7.6437 8.4929 -2.2442 3.9524 -1.1782 -12.9833 -10.7666 -3.6605 25.5029 -9.8969 -25.8831 10.8072 -5.2392 -4.6105 0.0000 -0.0000 0.0000 -82.7403 -1.2160 20.1467 9.0902 -15.3040 -1.2238 -0.0000 0.0000 -8.2324 32.2995 26.5660 15.7867 -7.1250 0.0000 -0.0000 2.7593 60.5653 1.0476 0.0000 -0.0000 0.0000 76.7044 49.4219 -12.7764 -9.6662 16.2158 -1.3803 0.0000 0.0000 46.2514 -27.6293 25.1727 -12.5518 7.1250 -0.0000 -0.0000 1.1951 -2.0403 1.1521
0.00 0.00 0.00 -5.6879 68.2124 15.6897 0.0000 0.0000 0.0000 -8.5110 -1.5844 -56.1006 17.7796 19.8814 83.4956 0.6152 -21.1829 -19.3479 0.4135 -4.1277 -11.4361 0.0000 0.0000 0.0000 10.8295 -5.0030 3.8469 -4.5504 -12.8589 38.8424 -0.4182 -10.9963 -20.7048 -0.1444 2.4485 -6.7469 -2.1321 5.9401 19.1199 -1.3429 7.6769 8.5194 -1.7569 3.9315 -1.5173 -13.0741 -12.1173 -1.2004 29.6538 -10.7868 -29.2025 12.7627 -6.1634 -5.4229 -0.0000 0.0000 0.0000 -84.9865 -12.4423 15.8746 9.9061 -16.5925 -1.4480 -0.0000 0.0000 -6.9281 34.6027 33.9965 21.0949 -7.1250 0.0000 -0.0000 2.9404 69.2889 1.7110 -0.0000 0.0000 0.0000 71.8052 47.4152 -43.4277 -9.3243 15.6758 -1.2863 0.0000 0.0000 14.9957 -20.3365 25.4025 -9.0341 7.1250 -0.0000 -0.0000 5.6456 -3.2322 5.3447
0.00 0.00 0.00 -0.3008 73.0684 21.1391 0.0000 0.0000 0.0000 -11.4878 -2.8925 -51.7772 17.4258 19.8404 82.4543 0.8564 -21.7574 -21.1992 0.4285 -4.2011 -11.6432 0.0000 0.0000 0.0000 11.4195 -4.6925 -6.3892 -9.3565 -17.0317 57.3149 -0.4159 2.0111 -11.6513 -0.6602 5.1967 -14.4705 -5.1752 4.6991 20.1294 -0.6402 5.6870 9.7427 1.0502 2.8891 -1.0499 -14.2277 -11.9571 0.2981 31.9823 -10.0197 -31.1198 14.3627 -5.9791 -6.1311 -0.0000 0.0000 0.0000 -89.9940 -19.4481 21.1720 13.7580 -22.3876 -2.7352 -0.0000 0.0000 -12.8453 37.5175 28.2229 19.9560 -7.1250 0.0000 -0.0000 9.1432 63.8411 4.1932 -0.0000 0.0000 0.0000 71.9206 40.4041 -26.0570 -16.4818 26.1695 -3.8560 0.0000 -0.0000 -15.3329 -25.6672 27.9823 -12.7065 7.1250 -0.0000 -0.0000 2.7826 0.5068 2.8104
0.00 0.00 0.00 5.6336 75.1416 25.6979 0.0000 0.0000 0.0000 -13.6535 -0.6903 -44.3255 16.1419 19.6393 78.6542 -0.1679 -25.3780 -16.8099 0.0504 -1.4485 -3.9837 0.0000 0.0000 0.0000 11.7042 -3.4586 -18.1034 -15.9104 -19.5942 77.9646 -0.5396 2.9894 -13.1755 -2.3129 9.4895 -27.3390 -9.5804 3.8812 22.3275 0.7181 3.8997 10.9769 5.3090 1.8536 -0.9216 -14.5501 -11.0120 0.6196 31.4794 -8.8282 -31.2413 14.4263 -5.3461 -6.5865 0.0000 0.0000 0.0000 -94.7096 -23.4054 27.7695 21.3015 -32.1786 -6.2097 -0.0000 0.0000 -21.1469 33.3735 25.9966 16.1048 -7.1250 0.0000 -0.0000 4.2190 60.2133 1.5674 0.0000 0.0000 0.0000 70.3461 35.0566 -14.2850 -23.5317 34.6651 -7.4385 0.0000 -0.0000 -21.9243 -28.8684 30.7177 -15.7280 7.1250 -0.0000 -0.0000 1.3981 4.1676 1.4964
0.00 0.00 0.00 13.5997 77.9992 34.9241 0.0000 0.0000 0.0000 -15.9221 1.6369 -33.3834 12.6772 18.6625 68.1197 -1.0728 -27.2090 -11.9999 0.0110 0.6778 1.8625 0.0000 0.0000 0.0000 12.6779 1.2137 -40.2032 -22.9727 -19.7868 98.7214 -0.8058 -2.9853 -18.2911 -0.4064 4.0927 -11.3375 -8.9520 0.0973 21.0545 0.5703 -0.7309 10.6169 5.8438 -0.4477 0.0618 -14.2870 -9.1668 1.0248 30.7276 -7.2009 -26.9564 13.7403 -4.5535 -5.8444 -0.0000 0.0000 0.0000 -92.8508 -25.7109 37.1744 36.5969 -45.9193 -15.9498 -0.0000 0.0000 -23.9309 28.0974 24.8251 12.6342 -7.1250 0.0000 -0.0000 -1.6069 57.6450 -0.4976 -0.0000 0.0000 0.0000 76.4960 27.7502 -6.4594 -40.7804 48.5255 -19.0219 0.0000 -0.0000 -39.3508 -37.3923 33.3047 -22.7676 7.1250 -0.0000 -0.0000 -2.7239 9.5690 -3.1421
